<svg width="338" height="112" viewBox="0 0 338 112" fill="none" xmlns="http://www.w3.org/2000/svg">
<path d="M34.9 0.5C44.9 0.5 52.95 3.25 59.05 8.75C65.15 14.25 68.6 21.75 69.4 31.25H52.9C52.4 26.15 50.55 22.2 47.35 19.4C44.25 16.6 40.1 15.2 34.9 15.2C29.3 15.2 24.85 16.8 21.55 20C18.35 23.2 16.75 27.6 16.75 33.2V78.8C16.75 84.4 18.3 88.8 21.4 92C24.6 95.2 29.05 96.8 34.75 96.8C40.05 96.8 44.25 95.4 47.35 92.6C50.55 89.7 52.4 85.75 52.9 80.75H69.4C69 85.45 67.9 89.7 66.1 93.5C64.4 97.3 62.05 100.55 59.05 103.25C56.05 105.85 52.5 107.9 48.4 109.4C44.3 110.8 39.75 111.5 34.75 111.5C29.55 111.5 24.8 110.75 20.5 109.25C16.3 107.65 12.7 105.45 9.7 102.65C6.7 99.75 4.35 96.3 2.65 92.3C1.05 88.2 0.25 83.7 0.25 78.8V33.2C0.25 28.2 1.05 23.7 2.65 19.7C4.35 15.7 6.7 12.3 9.7 9.5C12.7 6.6 16.3 4.4 20.5 2.9C24.8 1.3 29.6 0.5 34.9 0.5Z" fill="black"/>
<path d="M107.741 2V46.25H140.291V2H156.641V110H140.291V61.4H107.741V110H91.2414V2H107.741Z" fill="black"/>
<path d="M213.883 111.5C203.283 111.5 195.033 108.65 189.133 102.95C183.333 97.15 180.433 89.25 180.433 79.25V2H196.933V79.25C196.933 84.85 198.383 89.2 201.283 92.3C204.183 95.4 208.383 96.95 213.883 96.95C219.283 96.95 223.483 95.4 226.483 92.3C229.483 89.2 230.983 84.85 230.983 79.25V2H247.333V79.25C247.333 89.35 244.383 97.25 238.483 102.95C232.683 108.65 224.483 111.5 213.883 111.5Z" fill="black"/>
<path d="M290.774 2L317.774 74.15C318.474 75.85 319.074 77.8 319.574 80C320.174 82.2 320.724 84.3 321.224 86.3C321.724 88.7 322.224 91.1 322.724 93.5H324.224C324.224 93.5 324.124 92.85 323.924 91.55C323.824 90.25 323.624 88.55 323.324 86.45C323.124 84.35 322.924 82 322.724 79.4C322.524 76.8 322.424 74.2 322.424 71.6V2H337.424V110H317.024L290.324 37.7C289.524 35.7 288.824 33.6 288.224 31.4C287.624 29.1 287.074 26.95 286.574 24.95C286.074 22.75 285.624 20.55 285.224 18.35H283.724C284.024 20.45 284.274 22.65 284.474 24.95C284.674 26.95 284.824 29.25 284.924 31.85C285.124 34.45 285.224 37.2 285.224 40.1V110H270.224V2H290.774Z" fill="black"/>
</svg>
