<svg width="287" height="112" viewBox="0 0 287 112" fill="none" xmlns="http://www.w3.org/2000/svg">
<path d="M39 111.5C33.4 111.5 28.3 110.8 23.7 109.4C19.1 107.9 15.15 105.85 11.85 103.25C8.55 100.55 5.95 97.3 4.05 93.5C2.15 89.7 1.05 85.45 0.75 80.75H23.25C24.05 88.25 29.45 92 39.45 92C44.45 92 48.25 90.95 50.85 88.85C53.45 86.65 54.75 83.75 54.75 80.15C54.75 76.95 53.7 74.2 51.6 71.9C49.6 69.6 46.8 68.05 43.2 67.25L31.8 64.7C22 62.5 14.55 58.6 9.45 53C4.45 47.3 1.95 40.05 1.95 31.25C1.95 26.65 2.8 22.45 4.5 18.65C6.3 14.85 8.8 11.6 12 8.9C15.2 6.2 19.05 4.1 23.55 2.6C28.15 1.1 33.3 0.349999 39 0.349999C49.7 0.349999 58.25 3 64.65 8.3C71.15 13.6 74.75 20.95 75.45 30.35H52.95C52.55 27.05 51.05 24.5 48.45 22.7C45.95 20.8 42.6 19.85 38.4 19.85C34 19.85 30.55 20.9 28.05 23C25.65 25.1 24.45 27.75 24.45 30.95C24.45 33.75 25.4 36.2 27.3 38.3C29.2 40.3 31.95 41.7 35.55 42.5L47.55 45.2C57.25 47.4 64.6 51.4 69.6 57.2C74.7 62.9 77.25 70.2 77.25 79.1C77.25 83.9 76.35 88.3 74.55 92.3C72.75 96.2 70.15 99.6 66.75 102.5C63.45 105.3 59.45 107.5 54.75 109.1C50.05 110.7 44.8 111.5 39 111.5ZM100.441 2H123.241L141.391 79.85C141.791 81.35 142.091 83 142.291 84.8C142.591 86.5 142.841 88.1 143.041 89.6C143.241 91.4 143.441 93.2 143.641 95H144.541C144.741 93.2 144.991 91.4 145.291 89.6C145.491 88.1 145.741 86.5 146.041 84.8C146.341 83 146.641 81.35 146.941 79.85L164.791 2H187.441L158.641 110H128.641L100.441 2ZM247.383 50H286.683V77.75C286.683 82.85 285.783 87.5 283.983 91.7C282.183 95.8 279.633 99.35 276.333 102.35C273.033 105.25 269.033 107.5 264.333 109.1C259.733 110.7 254.583 111.5 248.883 111.5C243.183 111.5 237.983 110.7 233.283 109.1C228.683 107.5 224.733 105.25 221.433 102.35C218.133 99.35 215.583 95.8 213.783 91.7C211.983 87.5 211.083 82.85 211.083 77.75V34.25C211.083 29.25 211.983 24.75 213.783 20.75C215.583 16.65 218.133 13.2 221.433 10.4C224.733 7.5 228.683 5.25 233.283 3.64999C237.983 2.05 243.183 1.25 248.883 1.25C254.183 1.25 259.033 2 263.433 3.49999C267.833 4.89999 271.683 6.99999 274.983 9.79999C278.283 12.5 280.933 15.8 282.933 19.7C284.933 23.6 286.183 27.95 286.683 32.75H264.183C263.783 29.25 262.183 26.5 259.383 24.5C256.683 22.5 253.183 21.5 248.883 21.5C244.183 21.5 240.433 22.7 237.633 25.1C234.933 27.4 233.583 30.45 233.583 34.25V77.75C233.583 82.05 234.933 85.5 237.633 88.1C240.433 90.6 244.183 91.85 248.883 91.85C253.583 91.85 257.283 90.6 259.983 88.1C262.783 85.5 264.183 82.05 264.183 77.75V69.05H247.383V50Z" fill="black"/>
</svg>
