<svg width="339" height="111" viewBox="0 0 339 111" fill="none" xmlns="http://www.w3.org/2000/svg">
<path d="M0.0500488 0.849976H66.5001V15.85H16.25V46.75H62.6V61.75H16.55V109H0.0500488V0.849976Z" fill="black"/>
<path d="M92.2415 26.5H107.841V40.75H109.191C110.291 35.75 112.841 31.9 116.841 29.2C120.941 26.4 126.041 25 132.141 25C140.941 25 147.841 27.75 152.841 33.25C157.841 38.65 160.341 46.2 160.341 55.9V61.3H143.391V57.55C143.391 51.75 141.841 47.25 138.741 44.05C135.641 40.75 131.391 39.1 125.991 39.1C120.691 39.1 116.491 40.75 113.391 44.05C110.291 47.35 108.741 51.85 108.741 57.55V109H92.2415V26.5Z" fill="black"/>
<path d="M193.733 77.95C193.733 83.55 195.333 87.95 198.533 91.15C201.733 94.35 206.183 95.95 211.883 95.95C217.483 95.95 221.883 94.35 225.083 91.15C228.383 87.95 230.033 83.55 230.033 77.95V57.4C230.033 51.8 228.383 47.4 225.083 44.2C221.883 41 217.483 39.4 211.883 39.4C206.383 39.4 201.983 41.05 198.683 44.35C195.383 47.55 193.733 51.9 193.733 57.4V77.95ZM177.233 57.4C177.233 52.5 178.033 48.05 179.633 44.05C181.333 40.05 183.683 36.65 186.683 33.85C189.683 31.05 193.333 28.9 197.633 27.4C201.933 25.8 206.683 25 211.883 25C217.183 25 221.933 25.8 226.133 27.4C230.433 28.9 234.083 31.05 237.083 33.85C240.083 36.65 242.383 40.05 243.983 44.05C245.683 48.05 246.533 52.5 246.533 57.4V77.95C246.533 82.85 245.683 87.35 243.983 91.45C242.383 95.45 240.083 98.85 237.083 101.65C234.083 104.45 230.433 106.65 226.133 108.25C221.933 109.75 217.183 110.5 211.883 110.5C206.683 110.5 201.933 109.75 197.633 108.25C193.333 106.65 189.683 104.45 186.683 101.65C183.683 98.75 181.333 95.3 179.633 91.3C178.033 87.3 177.233 82.85 177.233 77.95V57.4Z" fill="black"/>
<path d="M265.074 26.5H277.674V38.65H278.874C279.274 34.35 280.674 31 283.074 28.6C285.474 26.2 288.724 25 292.824 25C296.724 25 299.974 26.2 302.574 28.6C305.274 30.9 307.124 34.25 308.124 38.65H308.724C309.124 34.35 310.524 31 312.924 28.6C315.324 26.2 318.574 25 322.674 25C327.674 25 331.574 26.9 334.374 30.7C337.274 34.4 338.724 39.55 338.724 46.15V109H324.774V46.9C324.774 40.3 322.124 37 316.824 37C311.524 37 308.874 40.5 308.874 47.5V109H294.924V46.9C294.924 43.1 293.974 40.35 292.074 38.65C290.674 37.55 288.974 37 286.974 37C284.974 37 283.324 37.55 282.024 38.65C280.024 40.25 279.024 43.2 279.024 47.5V109H265.074V26.5Z" fill="black"/>
</svg>
