<svg width="695" height="112" viewBox="0 0 695 112" fill="none" xmlns="http://www.w3.org/2000/svg">
<path d="M0.0500488 1.85H66.5001V16.85H16.25V47.75H62.6V62.75H16.55V110H0.0500488V1.85Z" fill="black"/>
<path d="M92.2415 27.5H107.841V41.75H109.191C110.291 36.75 112.841 32.9 116.841 30.2C120.941 27.4 126.041 26 132.141 26C140.941 26 147.841 28.75 152.841 34.25C157.841 39.65 160.341 47.2 160.341 56.9V62.3H143.391V58.55C143.391 52.75 141.841 48.25 138.741 45.05C135.641 41.75 131.391 40.1 125.991 40.1C120.691 40.1 116.491 41.75 113.391 45.05C110.291 48.35 108.741 52.85 108.741 58.55V110H92.2415V27.5Z" fill="black"/>
<path d="M193.733 78.95C193.733 84.55 195.333 88.95 198.533 92.15C201.733 95.35 206.183 96.95 211.883 96.95C217.483 96.95 221.883 95.35 225.083 92.15C228.383 88.95 230.033 84.55 230.033 78.95V58.4C230.033 52.8 228.383 48.4 225.083 45.2C221.883 42 217.483 40.4 211.883 40.4C206.383 40.4 201.983 42.05 198.683 45.35C195.383 48.55 193.733 52.9 193.733 58.4V78.95ZM177.233 58.4C177.233 53.5 178.033 49.05 179.633 45.05C181.333 41.05 183.683 37.65 186.683 34.85C189.683 32.05 193.333 29.9 197.633 28.4C201.933 26.8 206.683 26 211.883 26C217.183 26 221.933 26.8 226.133 28.4C230.433 29.9 234.083 32.05 237.083 34.85C240.083 37.65 242.383 41.05 243.983 45.05C245.683 49.05 246.533 53.5 246.533 58.4V78.95C246.533 83.85 245.683 88.35 243.983 92.45C242.383 96.45 240.083 99.85 237.083 102.65C234.083 105.45 230.433 107.65 226.133 109.25C221.933 110.75 217.183 111.5 211.883 111.5C206.683 111.5 201.933 110.75 197.633 109.25C193.333 107.65 189.683 105.45 186.683 102.65C183.683 99.75 181.333 96.3 179.633 92.3C178.033 88.3 177.233 83.85 177.233 78.95V58.4Z" fill="black"/>
<path d="M268.674 110V27.5H284.274V41.75H285.624C286.724 36.75 289.174 32.9 292.974 30.2C296.874 27.4 301.774 26 307.674 26C311.774 26 315.474 26.7 318.774 28.1C322.174 29.5 325.024 31.5 327.324 34.1C329.724 36.7 331.574 39.85 332.874 43.55C334.174 47.15 334.824 51.2 334.824 55.7V110H318.474V57.95C318.474 52.35 316.974 48 313.974 44.9C311.074 41.7 307.074 40.1 301.974 40.1C296.774 40.1 292.674 41.75 289.674 45.05C286.674 48.35 285.174 52.85 285.174 58.55V110H268.674Z" fill="black"/>
<path d="M354.566 27.5H377.816V2H394.316V27.5H425.966V42.35H394.316V86.3C394.316 89 395.116 91.15 396.716 92.75C398.316 94.25 400.566 95 403.466 95H424.466V110H402.716C395.016 110 388.916 107.85 384.416 103.55C380.016 99.25 377.816 93.5 377.816 86.3V42.35H354.566V27.5Z" fill="black"/>
<path d="M481.707 111.5C476.407 111.5 471.607 110.75 467.307 109.25C463.107 107.75 459.507 105.6 456.507 102.8C453.507 100 451.157 96.65 449.457 92.75C447.857 88.85 447.057 84.45 447.057 79.55V57.95C447.057 53.05 447.857 48.65 449.457 44.75C451.157 40.75 453.507 37.4 456.507 34.7C459.507 31.9 463.107 29.75 467.307 28.25C471.607 26.75 476.407 26 481.707 26C487.007 26 491.757 26.75 495.957 28.25C500.257 29.75 503.907 31.9 506.907 34.7C509.907 37.4 512.207 40.75 513.807 44.75C515.407 48.65 516.207 53.05 516.207 57.95V73.1H463.557V78.95C463.557 84.85 465.157 89.45 468.357 92.75C471.557 96.05 476.007 97.7 481.707 97.7C485.907 97.7 489.507 97.05 492.507 95.75C495.607 94.45 497.857 92.55 499.257 90.05H515.607C514.707 93.35 513.257 96.3 511.257 98.9C509.257 101.5 506.757 103.75 503.757 105.65C500.857 107.55 497.507 109 493.707 110C490.007 111 486.007 111.5 481.707 111.5ZM500.007 61.1V57.95C500.007 52.25 498.407 47.8 495.207 44.6C492.007 41.3 487.507 39.65 481.707 39.65C476.007 39.65 471.557 41.3 468.357 44.6C465.157 47.8 463.557 52.25 463.557 57.95V61.1H500.007Z" fill="black"/>
<path d="M538.498 110V27.5H554.099V41.75H555.448C556.548 36.75 558.999 32.9 562.799 30.2C566.699 27.4 571.598 26 577.498 26C581.598 26 585.299 26.7 588.599 28.1C591.999 29.5 594.848 31.5 597.148 34.1C599.548 36.7 601.398 39.85 602.698 43.55C603.998 47.15 604.648 51.2 604.648 55.7V110H588.299V57.95C588.299 52.35 586.799 48 583.799 44.9C580.899 41.7 576.899 40.1 571.799 40.1C566.599 40.1 562.498 41.75 559.498 45.05C556.498 48.35 554.998 52.85 554.998 58.55V110H538.498Z" fill="black"/>
<path d="M626.94 58.25C626.94 53.25 627.59 48.8 628.89 44.9C630.29 40.9 632.19 37.5 634.59 34.7C637.09 31.9 640.09 29.75 643.59 28.25C647.09 26.75 650.94 26 655.14 26C661.14 26 666.09 27.4 669.99 30.2C673.99 32.9 676.54 36.75 677.64 41.75H678.99C678.89 40.05 678.79 38.35 678.69 36.65C678.49 35.15 678.34 33.6 678.24 32C678.24 30.3 678.24 28.8 678.24 27.5V0.5H694.59V110H678.99V95.75H677.64C676.54 100.75 673.99 104.65 669.99 107.45C666.09 110.15 661.14 111.5 655.14 111.5C650.94 111.5 647.09 110.75 643.59 109.25C640.09 107.75 637.09 105.6 634.59 102.8C632.19 100 630.29 96.6 628.89 92.6C627.59 88.5 626.94 83.95 626.94 78.95V58.25ZM661.14 97.1C666.34 97.1 670.49 95.45 673.59 92.15C676.69 88.85 678.24 84.45 678.24 78.95V58.55C678.24 52.95 676.64 48.5 673.44 45.2C670.34 41.9 666.24 40.25 661.14 40.25C655.64 40.25 651.29 41.9 648.09 45.2C644.99 48.4 643.44 52.85 643.44 58.55V78.8C643.44 84.4 644.99 88.85 648.09 92.15C651.29 95.45 655.64 97.1 661.14 97.1Z" fill="black"/>
</svg>
