<svg width="80" height="80" fill="none" xmlns="http://www.w3.org/2000/svg">
    <g clip-path="url(#a)">
        <mask id="b" style="mask-type:luminance" maskUnits="userSpaceOnUse" x="0" y="0" width="80" height="80">
            <path d="M80 40C80 17.909 62.091 0 40 0S0 17.909 0 40s17.909 40 40 40 40-17.909 40-40Z" fill="#fff"/>
        </mask>
        <g mask="url(#b)">
            <path d="M80 0H0v80h80V0Z" fill="#E1F5C4"/>
            <g filter="url(#c)">
                <path d="m62.212 70.272 26.648-6.728 19.979-20.689-66.395-64.117L7.43 14.995l6.453 19.295 42.533 6.634 5.795 29.348Z" fill="#50C8C6"/>
            </g>
            <g style="mix-blend-mode:overlay" filter="url(#d)">
                <path d="m22.8 52.227 17.26 37.561 52.848.642 31.127-77.021-73.376-23.876-5.565 29.025 30.542-6.34 22.37 41.102L22.8 52.227Z" fill="#A7CD2C"/>
            </g>
        </g>
    </g>
    <defs>
        <filter id="c" x="-10.769" y="-39.462" width="137.808" height="127.934" filterUnits="userSpaceOnUse" color-interpolation-filters="sRGB">
            <feFlood flood-opacity="0" result="BackgroundImageFix"/>
            <feBlend in="SourceGraphic" in2="BackgroundImageFix" result="shape"/>
            <feGaussianBlur stdDeviation="9.1" result="effect1_foregroundBlur_144_2"/>
        </filter>
        <filter id="d" x="4.6" y="-28.667" width="137.635" height="137.297" filterUnits="userSpaceOnUse" color-interpolation-filters="sRGB">
            <feFlood flood-opacity="0" result="BackgroundImageFix"/>
            <feBlend in="SourceGraphic" in2="BackgroundImageFix" result="shape"/>
            <feGaussianBlur stdDeviation="9.1" result="effect1_foregroundBlur_144_2"/>
        </filter>
        <clipPath id="a">
            <path fill="#fff" d="M0 0h80v80H0z"/>
        </clipPath>
    </defs>
</svg>
