<svg width="244" height="110" viewBox="0 0 244 110" fill="none" xmlns="http://www.w3.org/2000/svg">
<path d="M16.8 0V92.85H65.55V108H0.300049V0H16.8Z" fill="black"/>
<path d="M88.1415 108V93.6H111.541V14.4H88.1415V0H151.741V14.4H128.341V93.6H151.741V108H88.1415Z" fill="black"/>
<path d="M209.883 109.5C199.283 109.5 191.033 106.65 185.133 100.95C179.333 95.15 176.433 87.25 176.433 77.25V0H192.933V77.25C192.933 82.85 194.383 87.2 197.283 90.3C200.183 93.4 204.383 94.95 209.883 94.95C215.283 94.95 219.483 93.4 222.483 90.3C225.483 87.2 226.983 82.85 226.983 77.25V0H243.333V77.25C243.333 87.35 240.383 95.25 234.483 100.95C228.683 106.65 220.483 109.5 209.883 109.5Z" fill="black"/>
</svg>
