<svg width="80" height="80" viewBox="0 0 80 80" fill="none" xmlns="http://www.w3.org/2000/svg">
<g clip-path="url(#clip0_144_2)">
<mask id="mask0_144_2" style="mask-type:luminance" maskUnits="userSpaceOnUse" x="0" y="0" width="80" height="80">
<path d="M80 40C80 17.9086 62.0914 0 40 0C17.9086 0 0 17.9086 0 40C0 62.0914 17.9086 80 40 80C62.0914 80 80 62.0914 80 40Z" fill="white"/>
</mask>
<g mask="url(#mask0_144_2)">
<path d="M80 0H0V80H80V0Z" fill="#E1F5C4"/>
<g filter="url(#filter0_f_144_2)">
<path d="M62.2122 70.272L88.8597 63.544L108.839 42.855L42.4439 -21.262L7.43061 14.9953L13.884 34.2898L56.4172 40.9236L62.2122 70.272Z" fill="#50C8C6"/>
</g>
<g style="mix-blend-mode:overlay" filter="url(#filter1_f_144_2)">
<path d="M22.7997 52.227L40.0603 89.7883L92.9084 90.4295L124.035 13.409L50.6588 -10.4672L45.0941 18.5578L75.6363 12.2185L98.0061 53.3201L22.7997 52.227Z" fill="#A7CD2C"/>
</g>
</g>
</g>
<defs>
<filter id="filter0_f_144_2" x="-10.7693" y="-39.462" width="137.808" height="127.934" filterUnits="userSpaceOnUse" color-interpolation-filters="sRGB">
<feFlood flood-opacity="0" result="BackgroundImageFix"/>
<feBlend mode="normal" in="SourceGraphic" in2="BackgroundImageFix" result="shape"/>
<feGaussianBlur stdDeviation="9.1" result="effect1_foregroundBlur_144_2"/>
</filter>
<filter id="filter1_f_144_2" x="4.5998" y="-28.6672" width="137.635" height="137.297" filterUnits="userSpaceOnUse" color-interpolation-filters="sRGB">
<feFlood flood-opacity="0" result="BackgroundImageFix"/>
<feBlend mode="normal" in="SourceGraphic" in2="BackgroundImageFix" result="shape"/>
<feGaussianBlur stdDeviation="9.1" result="effect1_foregroundBlur_144_2"/>
</filter>
<clipPath id="clip0_144_2">
<rect width="80" height="80" fill="white"/>
</clipPath>
</defs>
</svg>
