<svg width="523" height="108" viewBox="0 0 523 108" fill="none" xmlns="http://www.w3.org/2000/svg">
<path d="M0.300049 0H77.7001V14.85H47.4001V108H30.6V14.85H0.300049V0Z" fill="black"/>
<path d="M88.8914 108L118.141 0H140.641L168.991 108H151.891L144.991 79.35H112.741L105.841 108H88.8914ZM141.691 66.15L131.941 25.65C131.441 23.75 131.041 21.95 130.741 20.25C130.441 18.45 130.191 16.85 129.991 15.45C129.791 13.85 129.591 12.35 129.391 10.95H128.641C128.441 12.35 128.191 13.85 127.891 15.45C127.691 16.85 127.391 18.45 126.991 20.25C126.691 21.95 126.291 23.75 125.791 25.65L116.041 66.15H141.691Z" fill="black"/>
<path d="M187.083 108V93.6H210.483V14.4H187.083V0H250.683V14.4H227.283V93.6H250.683V108H187.083Z" fill="black"/>
<path d="M280.174 0L286.624 76.5C286.824 78.2 286.924 80.25 286.924 82.65C287.024 85.05 287.124 87.4 287.224 89.7C287.324 92.2 287.374 94.8 287.374 97.5H289.024C289.124 94.8 289.274 92.2 289.474 89.7C289.674 87.4 289.874 85.05 290.074 82.65C290.274 80.25 290.474 78.2 290.674 76.5L300.574 0H317.374L326.674 76.5C326.874 78.2 327.074 80.25 327.274 82.65C327.474 85.05 327.674 87.35 327.874 89.55C328.074 92.15 328.274 94.8 328.474 97.5H330.124C330.224 94.8 330.324 92.2 330.424 89.7C330.524 87.4 330.574 85.05 330.574 82.65C330.674 80.25 330.824 78.2 331.024 76.5L337.474 0H350.824L339.724 108H319.624L310.774 31.35C310.574 28.75 310.374 26.25 310.174 23.85C310.074 21.45 309.974 19.25 309.874 17.25C309.874 15.05 309.874 12.9 309.874 10.8H308.074C308.074 12.9 308.074 15.05 308.074 17.25C307.974 19.25 307.874 21.45 307.774 23.85C307.674 26.25 307.424 28.75 307.024 31.35L297.424 108H277.624L266.824 0H280.174Z" fill="black"/>
<path d="M358.716 108L387.966 0H410.466L438.816 108H421.716L414.816 79.35H382.566L375.666 108H358.716ZM411.516 66.15L401.766 25.65C401.266 23.75 400.866 21.95 400.566 20.25C400.266 18.45 400.016 16.85 399.816 15.45C399.616 13.85 399.416 12.35 399.216 10.95H398.466C398.266 12.35 398.016 13.85 397.716 15.45C397.516 16.85 397.216 18.45 396.816 20.25C396.516 21.95 396.116 23.75 395.616 25.65L385.866 66.15H411.516Z" fill="black"/>
<path d="M475.657 0L502.657 72.15C503.357 73.85 503.957 75.8 504.457 78C505.057 80.2 505.607 82.3 506.107 84.3C506.607 86.7 507.107 89.1 507.607 91.5H509.107C509.107 91.5 509.007 90.85 508.807 89.55C508.707 88.25 508.507 86.55 508.207 84.45C508.007 82.35 507.807 80 507.607 77.4C507.407 74.8 507.307 72.2 507.307 69.6V0H522.307V108H501.907L475.207 35.7C474.407 33.7 473.707 31.6 473.107 29.4C472.507 27.1 471.957 24.95 471.457 22.95C470.957 20.75 470.507 18.55 470.107 16.35H468.607C468.907 18.45 469.157 20.65 469.357 22.95C469.557 24.95 469.707 27.25 469.807 29.85C470.007 32.45 470.107 35.2 470.107 38.1V108H455.107V0H475.657Z" fill="black"/>
</svg>
