<svg width="112" height="112" fill="none" xmlns="http://www.w3.org/2000/svg"><mask id="a" fill="#fff"><path d="M9.027 79.911v-1.288c.357-.356.658-.794 1.096-1.04 7.672-4.166 15.81-6.44 24.633-6.001.329.027.63 0 .959 0-.028-.083-.028-.165-.055-.192-.22-.137-.466-.274-.712-.411-9.59-5.206-16.55-12.933-21.564-22.496-1.617-3.068-2.905-6.329-4.33-9.507v-1.288c.74-1.124 1.727-1.507 3.042-1.096 1.343.41 2.713.63 4.055 1.041 10.303 3.178 18.879 8.96 26.03 16.96 1.26 1.398 2.466 2.823 3.809 4.357-.055-.329-.055-.466-.082-.603-.52-3.123-1.206-6.22-1.535-9.343-.685-6.549.028-12.988 1.617-19.344 1.726-6.823 4.356-13.262 7.973-19.29.987-1.644 2.685-1.617 3.7 0a42.853 42.853 0 0 1 1.753 3.096c4.192 8.001 6.932 16.413 7.836 25.427.466 4.686.302 9.371-.438 14.002-.329 1.973-.712 3.918-1.123 6.028 1.287-1.48 2.52-2.932 3.753-4.302 8.248-9.152 18.221-15.426 30.36-18.057.931-.191 1.698-.11 2.329.603.602.713.548 1.507.191 2.302-1.26 2.822-2.383 5.726-3.808 8.466-5.07 9.864-12.193 17.838-22.057 23.18-.22.11-.411.275-.795.521h.603c8.877-.575 17.098 1.644 24.879 5.754.795.411 1.398.96 1.398 1.946s-.603 1.507-1.398 1.945c-3.863 2.11-7.946 3.644-12.22 4.658-4.603 1.096-9.234 1.562-13.92.904-1.15-.164-2.301-.383-3.589-.575.329.466.576.795.795 1.096 1.89 2.713 2.904 5.727 3.096 9.015.11 1.945-1.178 2.904-2.987 2.219-5.699-2.082-10.384-5.535-13.892-10.494-.164-.22-.328-.439-.63-.877 0 4.466-.027 8.658 0 12.823 0 1.206-.301 2.137-1.452 2.685h-1.096c-1.123-.548-1.452-1.479-1.452-2.685.027-3.863 0-7.727 0-11.59v-.959c-1.343 1.534-2.576 3.096-3.946 4.494-3.041 3.068-6.685 5.26-10.74 6.685-1.617.576-2.85-.383-2.823-2.11 0-.164 0-.301.028-.465.301-3.316 1.315-6.357 3.315-9.042.164-.22.329-.466.575-.822-.383.054-.575.082-.74.11-2.74.273-5.507.794-8.247.739-7.288-.192-14.11-2.274-20.522-5.7-.658-.355-1.124-.986-1.672-1.479Z"/></mask><path d="M9.027 79.911v-1.288c.357-.356.658-.794 1.096-1.04 7.672-4.166 15.81-6.44 24.633-6.001.329.027.63 0 .959 0-.028-.083-.028-.165-.055-.192-.22-.137-.466-.274-.712-.411-9.59-5.206-16.55-12.933-21.564-22.496-1.617-3.068-2.905-6.329-4.33-9.507v-1.288c.74-1.124 1.727-1.507 3.042-1.096 1.343.41 2.713.63 4.055 1.041 10.303 3.178 18.879 8.96 26.03 16.96 1.26 1.398 2.466 2.823 3.809 4.357-.055-.329-.055-.466-.082-.603-.52-3.123-1.206-6.22-1.535-9.343-.685-6.549.028-12.988 1.617-19.344 1.726-6.823 4.356-13.262 7.973-19.29.987-1.644 2.685-1.617 3.7 0a42.853 42.853 0 0 1 1.753 3.096c4.192 8.001 6.932 16.413 7.836 25.427.466 4.686.302 9.371-.438 14.002-.329 1.973-.712 3.918-1.123 6.028 1.287-1.48 2.52-2.932 3.753-4.302 8.248-9.152 18.221-15.426 30.36-18.057.931-.191 1.698-.11 2.329.603.602.713.548 1.507.191 2.302-1.26 2.822-2.383 5.726-3.808 8.466-5.07 9.864-12.193 17.838-22.057 23.18-.22.11-.411.275-.795.521h.603c8.877-.575 17.098 1.644 24.879 5.754.795.411 1.398.96 1.398 1.946s-.603 1.507-1.398 1.945c-3.863 2.11-7.946 3.644-12.22 4.658-4.603 1.096-9.234 1.562-13.92.904-1.15-.164-2.301-.383-3.589-.575.329.466.576.795.795 1.096 1.89 2.713 2.904 5.727 3.096 9.015.11 1.945-1.178 2.904-2.987 2.219-5.699-2.082-10.384-5.535-13.892-10.494-.164-.22-.328-.439-.63-.877 0 4.466-.027 8.658 0 12.823 0 1.206-.301 2.137-1.452 2.685h-1.096c-1.123-.548-1.452-1.479-1.452-2.685.027-3.863 0-7.727 0-11.59v-.959c-1.343 1.534-2.576 3.096-3.946 4.494-3.041 3.068-6.685 5.26-10.74 6.685-1.617.576-2.85-.383-2.823-2.11 0-.164 0-.301.028-.465.301-3.316 1.315-6.357 3.315-9.042.164-.22.329-.466.575-.822-.383.054-.575.082-.74.11-2.74.273-5.507.794-8.247.739-7.288-.192-14.11-2.274-20.522-5.7-.658-.355-1.124-.986-1.672-1.479Z" fill="#44995F"/><path d="M9.027 79.911h-1v.445l.331.299.67-.744Zm0-1.288-.707-.707-.293.293v.414h1Zm1.096-1.04-.477-.88-.006.004-.007.004.49.871Zm24.633-6.001.083-.997-.017-.001-.016-.001-.05.999Zm.959 0v1h1.387l-.438-1.317-.95.317Zm-.055-.192.707-.707-.08-.08-.097-.061-.53.848Zm-.712-.411.485-.874-.008-.005-.477.879ZM13.384 48.483l.886-.464-.001-.002-.885.466Zm-4.33-9.507h-1v.213l.088.196.913-.41Zm0-1.288-.834-.55-.165.25v.3h1Zm3.042-1.096-.298.954.005.002.293-.956Zm4.055 1.041.295-.956h-.002l-.293.956Zm26.03 16.96-.745.667.003.003.742-.67Zm3.809 4.357-.753.659 2.318 2.648-.579-3.471-.986.164Zm-.082-.603-.987.165.003.016.003.016.98-.197Zm-1.535-9.343-.994.104.994-.104ZM45.99 29.66l-.97-.246v.003l.97.243Zm7.973-19.29.858.514-.858-.514Zm3.7 0 .849-.528-.002-.003-.848.531Zm1.753 3.096-.89.457.004.007.886-.464Zm7.836 25.427.995-.099-.995.1Zm-.438 14.002.986.164.001-.006-.987-.158Zm-1.123 6.028-.982-.191-.713 3.661 2.449-2.814-.754-.656Zm3.753-4.302-.743-.67v.001l.743.669Zm30.36-18.057-.202-.98-.01.003.212.977Zm2.329.603.763-.646-.007-.008-.007-.008-.749.662Zm.191 2.302-.912-.41-.001.002.913.408Zm-3.808 8.466-.888-.461-.002.004.89.457Zm-22.057 23.18.447.895.015-.007.014-.008-.476-.88Zm-.795.521-.54-.84-2.865 1.84h3.405v-1Zm.603 0v1h.032l.033-.002-.065-.998Zm24.879 5.754-.467.885.008.004.459-.889Zm0 3.891.479.878.004-.002-.483-.876Zm-12.22 4.658-.231-.973.23.973Zm-13.92.904-.14.99h.002l.139-.99Zm-3.589-.575.147-.99-2.312-.344 1.348 1.91.817-.576Zm.795 1.096.82-.572-.006-.008-.005-.008-.81.588Zm3.096 9.015.998-.057v-.002l-.998.059Zm-2.987 2.219.355-.935-.011-.004-.344.939ZM58.43 88.104l.817-.578-.008-.011-.008-.011-.8.6Zm-.63-.877.824-.567-1.824-2.653v3.22h1Zm0 12.823h1v-.006l-1 .006Zm-1.452 2.685v1h.226l.204-.097-.43-.903Zm-1.096 0-.438.899.207.101h.231v-1ZM53.8 100.05l-1-.007v.007h1Zm0-12.549h1v-2.662l-1.753 2.004.753.658Zm-3.946 4.494.71.703.004-.003-.714-.7Zm-10.74 6.685-.332-.943-.004.001.335.942Zm-2.823-2.11 1 .016v-.016h-1Zm.028-.465.986.164.006-.037.004-.037-.996-.09Zm3.315-9.042-.8-.6-.002.002.802.598Zm.575-.822.823.569 1.303-1.883-2.267.324.142.99Zm-.74.11.1.994.033-.003.032-.005-.164-.987Zm-8.247.739-.026 1h.006l.02-1ZM10.7 81.39l-.476.88.005.003.47-.882Zm-.672-1.479V78.623h-2V79.911h2Zm-.293-.58c.17-.17.445-.485.537-.583.15-.159.254-.245.343-.294l-.98-1.743c-.35.196-.617.453-.816.664-.258.272-.31.354-.498.541l1.414 1.415Zm.866-.87c7.541-4.093 15.498-6.308 24.106-5.88l.1-1.998c-9.038-.45-17.356 1.884-25.16 6.12l.954 1.758Zm24.073-5.883c.376.031.834.004 1.042.004v-2c-.45 0-.595.026-.876.003l-.166 1.993Zm1.99-1.313c.012.035.02.079.005.004-.004-.02-.017-.088-.043-.166a1.074 1.074 0 0 0-.258-.42l-1.414 1.414a.948.948 0 0 1-.243-.423l-.003-.013.004.023.01.05c.01.039.023.097.045.164l1.898-.633Zm-.473-.723c-.245-.153-.515-.303-.757-.437l-.97 1.748c.25.14.474.264.667.385l1.06-1.696Zm-.765-.442c-9.39-5.098-16.219-12.666-21.155-22.081l-1.772.929c5.092 9.71 12.183 17.595 21.973 22.91l.954-1.758ZM14.269 48.017c-1.598-3.032-2.852-6.216-4.302-9.45l-1.825.818c1.4 3.122 2.721 6.46 4.357 9.564l1.77-.932Zm-4.214-9.041V37.688h-2V38.976h2Zm-.165-.738c.287-.436.564-.643.814-.735.248-.09.59-.114 1.094.043l.596-1.909c-.811-.253-1.62-.29-2.38-.011-.756.278-1.342.824-1.794 1.512l1.67 1.1Zm1.913-.69c.71.217 1.422.382 2.094.538.684.16 1.329.31 1.962.503l.585-1.912c-.71-.218-1.421-.382-2.094-.539a29.464 29.464 0 0 1-1.961-.502l-.586 1.912Zm4.053 1.04c10.115 3.12 18.54 8.795 25.58 16.672l1.49-1.333c-7.261-8.125-15.99-14.013-26.48-17.25l-.59 1.912ZM41.44 55.264c1.255 1.392 2.44 2.794 3.798 4.346l1.505-1.317c-1.327-1.517-2.552-2.965-3.818-4.368l-1.485 1.34Zm5.537 3.523a5.517 5.517 0 0 1-.044-.32c-.008-.071-.02-.193-.044-.315l-1.96.392.017.144c.011.102.027.238.059.428l1.972-.33Zm-.082-.603c-.532-3.196-1.201-6.197-1.526-9.284l-1.99.21c.334 3.16 1.035 6.352 1.543 9.403l1.973-.329ZM45.368 48.9c-.67-6.408.024-12.727 1.592-18.998l-1.94-.485c-1.61 6.443-2.341 13.001-1.641 19.691l1.989-.208Zm1.591-18.995c1.704-6.732 4.297-13.08 7.862-19.02l-1.715-1.03c-3.67 6.116-6.336 12.646-8.086 19.56l1.94.49Zm7.862-19.02c.363-.606.745-.739.977-.738.24.001.637.149 1.017.754L58.51 9.84c-.634-1.011-1.593-1.686-2.702-1.692-1.118-.005-2.08.67-2.702 1.708l1.715 1.03Zm1.992.013a41.817 41.817 0 0 1 1.713 3.024l1.78-.912a43.881 43.881 0 0 0-1.794-3.168l-1.699 1.056Zm1.717 3.032c4.14 7.902 6.837 16.191 7.727 25.063l1.99-.2c-.918-9.157-3.701-17.691-7.945-25.791l-1.772.928Zm7.727 25.062a53.429 53.429 0 0 1-.43 13.745l1.974.316c.753-4.712.921-9.484.446-14.259l-1.99.198Zm-.43 13.738c-.326 1.957-.706 3.887-1.118 6.002l1.963.382c.41-2.105.797-4.066 1.128-6.055l-1.972-.329Zm.618 6.85c1.299-1.493 2.517-2.928 3.743-4.29L68.7 53.952c-1.24 1.378-2.488 2.848-3.765 4.314l1.509 1.313Zm3.742-4.29c8.124-9.014 17.918-15.167 29.828-17.748l-.423-1.955c-12.367 2.68-22.52 9.076-30.89 18.364l1.485 1.34Zm29.818-17.746c.395-.081.665-.084.86-.04.17.037.336.12.519.326l1.498-1.325c-.448-.507-.981-.821-1.585-.955-.579-.128-1.159-.075-1.695.035l.403 1.959Zm1.364.27a.822.822 0 0 1 .22.517c.008.182-.039.42-.177.729l1.825.818c.218-.486.376-1.043.35-1.635a2.818 2.818 0 0 0-.691-1.722l-1.527 1.292Zm.042 1.247c-1.289 2.887-2.375 5.706-3.782 8.413l1.774.923c1.442-2.773 2.603-5.763 3.834-8.52l-1.826-.816Zm-3.785 8.417c-4.991 9.713-11.983 17.525-21.644 22.759l.953 1.758c10.067-5.453 17.323-13.588 22.47-23.603l-1.779-.914ZM76.011 70.221c-.18.09-.334.196-.458.282-.133.093-.257.181-.43.292l1.082 1.683c.211-.136.375-.253.489-.332.122-.085.173-.116.212-.136l-.895-1.789Zm-.347 2.415H76.266v-2H75.664v2Zm.668-.002c8.659-.561 16.696 1.6 24.347 5.64l.934-1.768c-7.912-4.179-16.315-6.457-25.41-5.868l.129 1.996Zm24.355 5.645c.339.175.55.337.676.494.107.133.181.296.181.563h2c0-.72-.228-1.325-.621-1.814-.374-.467-.862-.784-1.317-1.02l-.919 1.777Zm.857 1.057c0 .264-.072.418-.178.548-.129.159-.345.324-.703.522l.966 1.75c.436-.24.919-.554 1.29-1.012a2.789 2.789 0 0 0 .625-1.808h-2Zm-.877 1.067c-3.781 2.066-7.78 3.569-11.972 4.563l.462 1.946c4.356-1.033 8.523-2.599 12.468-4.753l-.958-1.756Zm-11.973 4.563c-4.52 1.076-9.02 1.523-13.549.887l-.277 1.98c4.842.68 9.602.195 14.29-.921l-.464-1.946Zm-13.546.887a72.095 72.095 0 0 1-1.72-.273c-.59-.1-1.209-.204-1.864-.301l-.294 1.978c.633.094 1.233.195 1.828.295.591.1 1.178.197 1.767.281l.283-1.98Zm-4.548.992c.334.473.593.819.803 1.107l1.617-1.176c-.228-.314-.462-.626-.786-1.085L70.6 86.845Zm.791 1.09c1.782 2.557 2.737 5.392 2.919 8.502l1.996-.117c-.202-3.466-1.274-6.659-3.274-9.528l-1.64 1.144Zm2.918 8.5c.043.76-.192 1.104-.372 1.237-.176.131-.563.255-1.261-.01l-.709 1.871c1.11.42 2.271.408 3.164-.256.889-.661 1.242-1.769 1.175-2.955l-1.996.113Zm-1.644 1.224c-5.52-2.017-10.036-5.35-13.419-10.133l-1.633 1.155c3.632 5.135 8.487 8.708 14.365 10.856l.687-1.878ZM59.229 87.504c-.16-.214-.315-.42-.606-.844l-1.648 1.133c.313.454.486.686.654.91l1.6-1.2Zm-2.43-.277c0 4.457-.027 8.661 0 12.83l2-.013c-.027-4.161 0-8.342 0-12.817h-2Zm0 12.823c0 .533-.069.895-.194 1.153-.111.229-.298.444-.688.63l.86 1.805c.761-.362 1.3-.887 1.628-1.562.313-.646.394-1.353.394-2.026h-2Zm-.452 1.685H55.251v2H56.347v-2Zm-.657.102c-.38-.185-.572-.403-.69-.639-.128-.262-.201-.625-.201-1.148h-2c0 .683.091 1.388.408 2.031.328.667.862 1.19 1.606 1.553l.877-1.797Zm-.891-1.78c.027-3.867 0-7.744 0-11.597h-2c0 3.873.027 7.724 0 11.583l2 .014Zm0-11.597V87.501h-2V88.46h2Zm-1.753-1.617c-1.389 1.587-2.561 3.079-3.907 4.451l1.428 1.4c1.395-1.422 2.689-3.054 3.984-4.535l-1.505-1.317Zm-3.903 4.448c-2.925 2.95-6.435 5.066-10.362 6.446l.663 1.887c4.183-1.47 7.961-3.739 11.12-6.925l-1.42-1.408Zm-10.366 6.447c-.563.2-.906.091-1.089-.047-.192-.146-.408-.477-.398-1.105l-2-.031c-.017 1.098.37 2.11 1.191 2.73.832.63 1.913.712 2.967.337l-.67-1.884ZM37.29 96.57c0-.17.002-.229.014-.301l-1.973-.329c-.042.257-.04.472-.04.63h2Zm.024-.375c.287-3.162 1.248-6.02 3.121-8.535l-1.604-1.195c-2.127 2.856-3.194 6.08-3.51 9.549l1.993.181Zm3.12-8.532c.179-.24.364-.518.597-.853l-1.645-1.139c-.26.377-.404.593-.553.792l1.6 1.2Zm-.367-2.412c-.378.054-.584.083-.763.113l.33 1.973c.15-.026.327-.05.716-.106l-.283-1.98Zm-.698.104c-2.86.286-5.465.788-8.128.735l-.04 2c2.818.056 5.747-.483 8.367-.745l-.199-1.99Zm-8.121.735c-7.109-.187-13.78-2.217-20.078-5.581l-.942 1.764c6.525 3.486 13.499 5.62 20.967 5.817l.053-2Zm-20.073-5.579c-.204-.11-.405-.278-.65-.52-.206-.203-.539-.562-.829-.823l-1.338 1.486c.258.233.432.435.761.76.289.285.65.61 1.104.856l.952-1.758Z" fill="#F1F1F1" mask="url(#a)"/><path d="M54.75 55c0 2.451-.553 4.658-1.433 6.242-.885 1.594-2.068 2.508-3.317 2.508s-2.432-.914-3.317-2.508c-.88-1.584-1.433-3.791-1.433-6.242s.553-4.658 1.433-6.243c.885-1.593 2.068-2.507 3.317-2.507s2.432.914 3.317 2.507c.88 1.585 1.433 3.792 1.433 6.243ZM66.75 55c0 2.451-.552 4.658-1.433 6.242-.885 1.594-2.068 2.508-3.317 2.508s-2.432-.914-3.317-2.508c-.88-1.584-1.433-3.791-1.433-6.242s.553-4.658 1.433-6.243c.885-1.593 2.068-2.507 3.317-2.507s2.432.914 3.317 2.507c.88 1.585 1.433 3.792 1.433 6.243Z" fill="#fff" stroke="#242424" stroke-width=".5"/><circle cx="51.5" cy="57.5" r="1.5" fill="#000"/><circle cx="60.5" cy="57.5" r="1.5" fill="#000"/></svg>