<svg width="166" height="110" viewBox="0 0 166 110" fill="none" xmlns="http://www.w3.org/2000/svg">
<path d="M0.75 0H18.15L38.25 44.4C38.95 45.9 39.5 47.4 39.9 48.9C40.4 50.4 40.8 51.7 41.1 52.8C41.5 54.2 41.8 55.55 42 56.85H42.75C42.95 55.55 43.25 54.2 43.65 52.8C43.95 51.7 44.3 50.4 44.7 48.9C45.2 47.4 45.75 45.9 46.35 44.4L65.85 0H83.25L50.25 70.5V108H33.75V70.5L0.75 0Z" fill="black"/>
<path d="M131.941 109.5C121.341 109.5 113.091 106.65 107.191 100.95C101.391 95.15 98.4914 87.25 98.4914 77.25V0H114.991V77.25C114.991 82.85 116.441 87.2 119.341 90.3C122.241 93.4 126.441 94.95 131.941 94.95C137.341 94.95 141.541 93.4 144.541 90.3C147.541 87.2 149.041 82.85 149.041 77.25V0H165.391V77.25C165.391 87.35 162.441 95.25 156.541 100.95C150.741 106.65 142.541 109.5 131.941 109.5Z" fill="black"/>
</svg>
