<svg width="227" height="75" viewBox="0 0 227 75" fill="none" xmlns="http://www.w3.org/2000/svg">
<path id='matter-path' d="M0.806819 73V0.272725H9.61364V32.6591H48.392V0.272725H57.1989V73H48.392V40.4716H9.61364V73H0.806819ZM96.5632 74.1364C91.3075 74.1364 86.7739 72.9763 82.9624 70.6562C79.1745 68.3125 76.2507 65.0455 74.1911 60.8551C72.1551 56.6411 71.1371 51.7405 71.1371 46.1534C71.1371 40.5663 72.1551 35.642 74.1911 31.3807C76.2507 27.0956 79.1153 23.7576 82.7848 21.3665C86.478 18.9517 90.7867 17.7443 95.7109 17.7443C98.5518 17.7443 101.357 18.2178 104.127 19.1648C106.897 20.1117 109.418 21.6506 111.691 23.7812C113.964 25.8883 115.775 28.6818 117.124 32.1619C118.474 35.642 119.148 39.9271 119.148 45.017V48.5682H77.103V41.3239H110.626C110.626 38.2462 110.01 35.5 108.779 33.0852C107.572 30.6705 105.844 28.7647 103.594 27.3679C101.369 25.9711 98.7412 25.2727 95.7109 25.2727C92.3729 25.2727 89.4846 26.1013 87.0462 27.7585C84.6314 29.392 82.773 31.5227 81.4709 34.1506C80.1688 36.7784 79.5178 39.5956 79.5178 42.6023V47.4318C79.5178 51.5511 80.228 55.0431 81.6484 57.9077C83.0926 60.7486 85.093 62.9148 87.6499 64.4062C90.2067 65.8741 93.1778 66.608 96.5632 66.608C98.7649 66.608 100.754 66.3002 102.529 65.6847C104.328 65.0455 105.879 64.0985 107.181 62.8438C108.483 61.5653 109.489 59.9792 110.2 58.0852L118.296 60.358C117.444 63.1042 116.012 65.5189 113.999 67.6023C111.987 69.6619 109.501 71.2718 106.542 72.4318C103.583 73.5682 100.256 74.1364 96.5632 74.1364ZM140.278 0.272725V73H131.897V0.272725H140.278ZM164.008 0.272725V73H155.627V0.272725H164.008ZM201.517 74.1364C196.593 74.1364 192.272 72.9645 188.555 70.6207C184.862 68.277 181.974 64.9981 179.891 60.7841C177.831 56.5701 176.801 51.6458 176.801 46.0114C176.801 40.3295 177.831 35.3698 179.891 31.1321C181.974 26.8944 184.862 23.6037 188.555 21.2599C192.272 18.9162 196.593 17.7443 201.517 17.7443C206.441 17.7443 210.75 18.9162 214.443 21.2599C218.16 23.6037 221.048 26.8944 223.108 31.1321C225.191 35.3698 226.233 40.3295 226.233 46.0114C226.233 51.6458 225.191 56.5701 223.108 60.7841C221.048 64.9981 218.16 68.277 214.443 70.6207C210.75 72.9645 206.441 74.1364 201.517 74.1364ZM201.517 66.608C205.258 66.608 208.335 65.6491 210.75 63.7315C213.165 61.8139 214.952 59.2926 216.112 56.1676C217.272 53.0426 217.852 49.6572 217.852 46.0114C217.852 42.3655 217.272 38.9683 216.112 35.8196C214.952 32.6709 213.165 30.1259 210.75 28.1847C208.335 26.2434 205.258 25.2727 201.517 25.2727C197.777 25.2727 194.699 26.2434 192.284 28.1847C189.869 30.1259 188.082 32.6709 186.922 35.8196C185.762 38.9683 185.182 42.3655 185.182 46.0114C185.182 49.6572 185.762 53.0426 186.922 56.1676C188.082 59.2926 189.869 61.8139 192.284 63.7315C194.699 65.6491 197.777 66.608 201.517 66.608Z" fill="black"/>
</svg>
